<?xml version="1.0" encoding="UTF-8"?>
<svg width="24px" height="24px" viewBox="0 0 24 24" version="1.1" xmlns="http://www.w3.org/2000/svg">
    <path d="M24,12.073 C24,5.405 18.627,0 12,0 C5.373,0 0,5.405 0,12.073 C0,18.099 4.388,23.094 10.125,24 L10.125,15.563 L7.078,15.563 L7.078,12.073 L10.125,12.073 L10.125,9.413 C10.125,6.388 11.917,4.717 14.658,4.717 C15.97,4.717 17.344,4.952 17.344,4.952 L17.344,7.876 L15.83,7.876 C14.339,7.876 13.875,8.801 13.875,9.749 L13.875,12.073 L17.2,12.073 L16.67,15.563 L13.875,15.563 L13.875,24 C19.612,23.094 24,18.099 24,12.073" fill="currentColor"/>
</svg>