<?xml version="1.0" encoding="UTF-8"?>
<svg width="24px" height="24px" viewBox="0 0 24 24" version="1.1" xmlns="http://www.w3.org/2000/svg">
    <path d="M12,0 C8.74,0 8.333,0.015 7.053,0.072 C5.775,0.132 4.905,0.333 4.14,0.63 C3.351,0.936 2.681,1.347 2.014,2.014 C1.347,2.681 0.935,3.35 0.63,4.14 C0.333,4.905 0.131,5.775 0.072,7.053 C0.012,8.333 0,8.74 0,12 C0,15.26 0.015,15.667 0.072,16.947 C0.132,18.224 0.333,19.095 0.63,19.86 C0.936,20.648 1.347,21.319 2.014,21.986 C2.681,22.652 3.35,23.065 4.14,23.37 C4.906,23.666 5.776,23.869 7.053,23.928 C8.333,23.988 8.74,24 12,24 C15.26,24 15.667,23.985 16.947,23.928 C18.224,23.868 19.095,23.666 19.86,23.37 C20.648,23.064 21.319,22.652 21.986,21.986 C22.652,21.319 23.065,20.651 23.37,19.86 C23.666,19.095 23.869,18.224 23.928,16.947 C23.988,15.667 24,15.26 24,12 C24,8.74 23.985,8.333 23.928,7.053 C23.868,5.776 23.666,4.904 23.37,4.14 C23.064,3.351 22.652,2.681 21.986,2.014 C21.319,1.347 20.651,0.935 19.86,0.63 C19.095,0.333 18.224,0.131 16.947,0.072 C15.667,0.012 15.26,0 12,0 Z M12,2.16 C15.203,2.16 15.585,2.176 16.846,2.231 C18.021,2.286 18.673,2.48 19.077,2.646 C19.605,2.863 19.988,3.123 20.39,3.525 C20.792,3.927 21.052,4.31 21.269,4.838 C21.435,5.242 21.63,5.894 21.684,7.069 C21.739,8.33 21.755,8.712 21.755,11.915 C21.755,15.118 21.739,15.5 21.684,16.761 C21.629,17.936 21.435,18.588 21.269,18.992 C21.052,19.52 20.792,19.903 20.39,20.305 C19.988,20.707 19.605,20.967 19.077,21.184 C18.673,21.35 18.021,21.545 16.846,21.6 C15.585,21.654 15.203,21.67 12,21.67 C8.797,21.67 8.415,21.654 7.154,21.6 C5.979,21.545 5.327,21.35 4.923,21.184 C4.395,20.967 4.012,20.707 3.61,20.305 C3.208,19.903 2.948,19.52 2.731,18.992 C2.565,18.588 2.37,17.936 2.316,16.761 C2.261,15.5 2.245,15.118 2.245,11.915 C2.245,8.712 2.261,8.33 2.316,7.069 C2.371,5.894 2.565,5.242 2.731,4.838 C2.948,4.31 3.208,3.927 3.61,3.525 C4.012,3.123 4.395,2.863 4.923,2.646 C5.327,2.48 5.979,2.286 7.154,2.231 C8.415,2.176 8.797,2.16 12,2.16" fill="currentColor"/>
    <path d="M12,15.838 C9.73,15.838 7.893,14.001 7.893,11.731 C7.893,9.461 9.73,7.624 12,7.624 C14.27,7.624 16.107,9.461 16.107,11.731 C16.107,14.001 14.27,15.838 12,15.838 M12,5.454 C8.528,5.454 5.714,8.268 5.714,11.74 C5.714,15.212 8.528,18.026 12,18.026 C15.472,18.026 18.286,15.212 18.286,11.74 C18.286,8.268 15.472,5.454 12,5.454" fill="currentColor"/>
    <path d="M18.406,5.269 C18.406,4.577 17.844,4.015 17.152,4.015 C16.46,4.015 15.898,4.577 15.898,5.269 C15.898,5.961 16.46,6.523 17.152,6.523 C17.844,6.523 18.406,5.961 18.406,5.269" fill="currentColor"/>
</svg>